<?xml version="1.0" standalone="no"?>
<!DOCTYPE svg PUBLIC "-//W3C//DTD SVG 20010904//EN"
 "http://www.w3.org/TR/2001/REC-SVG-20010904/DTD/svg10.dtd">
<svg version="1.0" xmlns="http://www.w3.org/2000/svg"
 width="1047.000000pt" height="1245.000000pt" viewBox="0 0 1047.000000 1245.000000"
 preserveAspectRatio="xMidYMid meet">

<g transform="translate(0.000000,1245.000000) scale(0.100000,-0.100000)"
fill="#000000" stroke="none">
<path d="M4875 10878 c-145 -10 -317 -57 -450 -122 -130 -64 -225 -130 -225
-155 0 -36 23 -42 69 -15 24 13 44 24 45 24 0 0 2 -12 3 -27 0 -15 8 -32 17
-39 10 -7 95 -13 243 -17 240 -6 397 -24 622 -72 478 -101 959 -328 1336 -630
122 -98 326 -300 419 -415 445 -554 650 -1292 526 -1890 -36 -172 -66 -246
-140 -345 -68 -91 -265 -305 -280 -305 -4 0 -18 33 -29 73 -68 232 -191 507
-309 688 -94 144 -171 236 -299 360 -280 270 -637 430 -998 446 -461 20 -864
-240 -987 -637 -21 -67 -23 -94 -22 -250 1 -156 3 -186 27 -275 80 -298 219
-537 442 -760 123 -124 247 -218 383 -292 299 -165 706 -229 1055 -168 143 25
253 61 446 142 12 5 13 -14 8 -123 -34 -672 -353 -1269 -927 -1734 -293 -237
-615 -432 -894 -541 -109 -43 -166 -53 -381 -69 -230 -16 -656 -8 -785 16 -34
7 -33 7 35 25 78 21 415 71 600 90 150 15 165 20 165 57 0 35 -16 52 -52 52
-35 0 -28 20 15 40 40 19 49 66 19 93 -18 17 -30 17 -223 -3 -316 -33 -479
-56 -739 -105 -69 -13 -188 -28 -265 -35 -210 -18 -248 -33 -226 -92 16 -43
357 -357 628 -580 164 -135 468 -363 511 -383 17 -8 48 -22 66 -31 61 -29 97
7 54 54 -13 15 -32 38 -41 52 -9 14 -26 38 -38 54 -20 26 -13 23 83 -28 112
-60 131 -65 166 -40 42 29 29 57 -60 132 -135 112 -321 250 -499 367 -221 146
-209 137 -184 130 243 -76 637 -112 921 -86 829 78 1596 524 2034 1184 211
317 324 629 376 1036 17 133 21 515 6 641 l-7 65 105 105 c314 314 516 715
605 1195 26 137 32 488 11 636 -101 726 -530 1390 -1216 1884 -604 434 -1246
661 -1765 623z m225 -117 c39 -7 33 -9 -45 -10 -150 -2 -436 -48 -450 -72 -4
-5 -43 -9 -88 -9 l-82 1 35 15 c54 24 207 63 285 73 89 11 286 12 345 2z m265
-147 c409 -59 842 -280 1190 -609 61 -58 53 -54 -80 42 -362 262 -836 465
-1304 559 -69 13 -127 27 -130 30 -9 9 212 -6 324 -22z m1676 -897 c380 -416
594 -843 663 -1324 23 -159 19 -186 -10 -63 -114 495 -380 1023 -721 1432
-107 127 -64 99 68 -45z m-1756 -1517 c-104 -14 -186 -39 -290 -90 -121 -58
-199 -115 -289 -211 -75 -78 -69 -51 9 45 126 154 359 265 555 264 l75 -1 -60
-7z m245 -120 c155 -24 334 -104 482 -215 109 -82 296 -277 378 -393 118 -167
247 -491 319 -800 l19 -84 -82 -60 c-194 -143 -270 -168 -507 -168 -350 0
-700 148 -1059 447 -219 183 -362 346 -437 498 -32 65 -34 75 -28 136 16 175
110 337 267 462 184 147 423 212 648 177z m815 -236 c201 -198 371 -463 486
-758 38 -97 99 -296 99 -321 0 -13 -65 -75 -78 -75 -4 0 -15 37 -25 83 -39
173 -108 357 -215 567 -145 286 -251 444 -412 614 l-65 70 64 -50 c35 -27 101
-85 146 -130z m1311 -360 c-89 -332 -239 -602 -458 -826 -64 -66 -82 -79 -85
-65 -3 13 14 37 54 75 172 166 318 397 402 636 40 114 104 276 108 273 1 -2
-8 -43 -21 -93z m-2348 -1020 c110 -66 255 -136 350 -169 91 -32 53 -31 -50 1
-141 45 -325 146 -433 241 l-30 26 35 -22 c19 -12 77 -47 128 -77z m1682 26
c0 -13 -79 -70 -97 -70 -24 0 -13 19 30 49 43 31 67 38 67 21z m-220 -134 c0
-14 -94 -57 -210 -98 -59 -21 -239 -68 -255 -67 -22 0 121 60 193 80 42 12
115 38 162 59 96 43 110 46 110 26z m234 -302 c0 -289 -13 -404 -69 -624 -28
-110 -49 -170 -40 -110 30 187 37 317 31 580 -4 151 -9 298 -12 326 -6 49 -5
51 33 76 21 15 43 25 48 24 6 -2 10 -100 9 -272z m-239 -728 c-126 -624 -517
-1099 -1117 -1355 -115 -49 -336 -126 -343 -119 -2 2 35 25 83 52 368 206 752
522 974 800 169 211 317 474 388 684 19 57 36 95 38 84 2 -11 -8 -76 -23 -146z"/>
</g>
</svg>
